<?xml version="1.0" encoding="UTF-8"?><svg xmlns="http://www.w3.org/2000/svg" xmlns:xlink="http://www.w3.org/1999/xlink" height="449.2" preserveAspectRatio="xMidYMid meet" version="1.0" viewBox="-4.0 -0.6 488.9 449.2" width="488.9" zoomAndPan="magnify"><g id="change1_1"><path d="M11.2157049,448.6324158c-0.3994141,0-0.8022461-0.03125-1.2055664-0.0966797 c-3.1240239-0.5078125-5.5927739-2.921875-6.1708989-6.0332031c-0.8227539-4.4306641-7.8310547-44.7773438-0.59375-96.3847656 c4.1176758-29.359375,12.0556641-57.1533203,23.5947266-82.6113281c14.290041-31.527832,34.1943359-59.6088867,59.159668-83.4628906 c55.4902267-53.0273438,120.0385666-70.7558594,166.6464844-76.0024414V7.5000911 c0-2.9941406,1.7802734-5.7011719,4.5302734-6.8867188c2.7490234-1.1860352,5.9404297-0.6220703,8.1171875,1.4321288 l217.2128906,204.9960938c1.5019531,1.4169922,2.3525391,3.3901367,2.3525391,5.4545898s-0.8505859,4.0375977-2.3525391,5.4541016 L265.2938232,422.9566345c-2.1767578,2.0546875-5.3681641,2.6201172-8.1171875,1.4326172 c-2.7490234-1.1855469-4.5302734-3.8925781-4.5302734-6.8867188V302.9839783 c-42.3925781,0.8535156-82.6425781,10.9150391-119.7548828,29.9472656 c-64.6166916,33.1386719-99.8603439,84.2929688-115.1176682,111.8349609 C16.4383602,447.1773376,13.9095526,448.6324158,11.2157049,448.6324158z M267.6463623,24.8912048v85.9257812 c0,3.8793945-2.9589844,7.1186523-6.8222656,7.4692383c-44.6020508,4.0463867-109.3398438,19.9267578-164.4614258,72.6020508 c-43.0625,41.1455078-69.3935547,94.0732422-78.262207,157.3125c-4.0541983,28.9091797-3.4497061,53.9833984-2.1010733,70.6113281 c19.7749023-29.9199219,54.6860352-70.8359375,110.0473633-99.2285156 c40.9692307-21.0097656,85.5468674-31.6591797,132.5087891-31.6591797c0.5449219,0,1.0839844,0.0009766,1.6298828,0.0039062 c4.1269531,0.0214844,7.4609375,3.3730469,7.4609375,7.5v104.6826172l198.7861328-187.6147461L267.6463623,24.8912048z" fill="inherit"/></g></svg>