<?xml version="1.0" encoding="UTF-8"?><svg xmlns="http://www.w3.org/2000/svg" xmlns:xlink="http://www.w3.org/1999/xlink" height="76.0" preserveAspectRatio="xMidYMid meet" version="1.0" viewBox="-0.1 -0.1 64.8 76.0" width="64.8" zoomAndPan="magnify"><g data-name="8" id="change1_1"><path d="M63.97,62.843Q60.912,57.47,57.854,52.1c-1.593-2.8-3.185-5.606-4.8-8.446a3.176,3.176,0,0,0,1.675-3.342q-.349-3.1-.745-6.189a.813.813,0,0,1,.235-.753c1.434-1.482,2.851-2.979,4.275-4.471a3.1,3.1,0,0,0,.031-4.5c-1.377-1.49-2.749-2.985-4.142-4.46a1.042,1.042,0,0,1-.3-.975q.462-3.081.865-6.172a3.043,3.043,0,0,0-2.6-3.575c-2.037-.4-4.073-.817-6.114-1.2a.863.863,0,0,1-.671-.5q-1.541-2.88-3.108-5.744A2.755,2.755,0,0,0,39.661.218a4.485,4.485,0,0,0-1.475.41c-1.834.824-3.652,1.682-5.469,2.542a.811.811,0,0,1-.79-.009C30.052,2.23,28.167,1.319,26.287.4A2.914,2.914,0,0,0,22.14,1.7c-1.029,1.843-2.042,3.7-3.086,5.53a.977.977,0,0,1-.581.44c-2.074.391-4.154.751-6.233,1.112a3.085,3.085,0,0,0-2.638,3.6c.265,2.078.493,4.16.753,6.238a.877.877,0,0,1-.273.794c-1.4,1.447-2.741,2.95-4.182,4.352a3.226,3.226,0,0,0-.024,4.669c1.418,1.451,2.763,2.972,4.149,4.453a.8.8,0,0,1,.251.745c-.309,2.088-.585,4.181-.885,6.271a3.059,3.059,0,0,0,1.541,3.246c.11.065.217.136.339.211-.09.171-.164.318-.245.462C7.442,50.175,3.882,56.544.253,62.873a1.608,1.608,0,0,0,1.462,2.493c3.708-.066,7.417-.013,11.125-.033a.834.834,0,0,1,.845.5q2.51,4.424,5.059,8.823a1.476,1.476,0,0,0,2.767-.008Q26.65,65.873,31.792,57.1c.087-.15.186-.293.31-.486.13.215.226.367.316.522q5.106,8.826,10.209,17.654a1.651,1.651,0,0,0,1.463,1.034,1.634,1.634,0,0,0,1.436-1.061c1.663-2.993,3.349-5.972,5.012-8.965a.753.753,0,0,1,.766-.462c3.725.019,7.45.012,11.175.01C64.055,65.343,64.738,64.193,63.97,62.843ZM8.134,26.658c-.11-.121-.214-.249-.344-.4.118-.132.223-.256.335-.374,1.411-1.48,2.811-2.972,4.238-4.435a3.187,3.187,0,0,0,.919-2.862c-.286-2.024-.486-4.06-.755-6.086-.065-.485.052-.659.546-.74,2.066-.335,4.124-.718,6.187-1.076a3.087,3.087,0,0,0,2.291-1.66c.972-1.779,1.965-3.547,2.95-5.319.1-.187.212-.372.338-.592.365.174.707.334,1.046.5,1.687.823,3.377,1.64,5.059,2.473a2.976,2.976,0,0,0,2.73.016c2.061-.962,4.133-1.9,6.265-2.876.759,1.43,1.491,2.807,2.222,4.185.342.646.672,1.3,1.027,1.938a2.913,2.913,0,0,0,2.125,1.56c2.157.393,4.3.842,6.456,1.268.08.016.158.044.3.085-.084.62-.163,1.238-.25,1.855-.242,1.711-.5,3.42-.726,5.133a2.829,2.829,0,0,0,.78,2.382q2.173,2.338,4.337,4.686c.111.12.217.245.349.395l-3.34,3.451c-.463.478-.92.96-1.39,1.431a2.9,2.9,0,0,0-.873,2.54c.259,2.095.505,4.191.755,6.287.021.179.034.358.056.592-1,.169-1.981.336-2.959.5-1.246.207-2.5.4-3.737.622a3.008,3.008,0,0,0-2.178,1.59q-1.515,2.749-3.044,5.494c-.081.144-.166.286-.269.46-.139-.058-.273-.106-.4-.169-1.9-.924-3.795-1.844-5.686-2.779a3.006,3.006,0,0,0-2.778-.015c-1.919.916-3.846,1.814-5.77,2.719-.147.069-.3.132-.477.212-.619-1.166-1.22-2.293-1.818-3.421-.459-.866-.913-1.735-1.374-2.6A2.982,2.982,0,0,0,19,41.97c-2.147-.355-4.283-.779-6.423-1.177-.112-.021-.22-.063-.384-.111.124-.909.245-1.809.37-2.709.2-1.4.4-2.8.59-4.2A2.9,2.9,0,0,0,12.37,31.3Q10.244,28.987,8.134,26.658ZM59.618,62.366c-3.125,0-6.25.01-9.375-.007a1.7,1.7,0,0,0-1.655.954c-1.384,2.5-2.8,4.984-4.2,7.474-.088.156-.182.309-.329.56L34.419,54.62a3.021,3.021,0,0,0-2.207-1.254,3.12,3.12,0,0,0-2.6,1.327c-4.762,8.22-6.623,11.5-7.2,12.582-.159.3-.921,1.607-1.938,3.37-.08.14-.171.273-.288.461-.915-1.579-1.8-3.1-2.677-4.621-.616-1.064-1.24-2.124-1.847-3.193a1.7,1.7,0,0,0-1.625-.934c-3.142.019-6.284.008-9.426.007H3.978c.1-.194.16-.335.236-.47q4.914-8.7,9.823-17.406a.576.576,0,0,1,.741-.341c1.123.23,2.259.391,3.382.621a.98.98,0,0,1,.582.428c1.027,1.843,2.03,3.7,3.031,5.556a3.006,3.006,0,0,0,4.2,1.439,30.828,30.828,0,0,0,2.827-1.3c.774-.45,1.622-.762,2.4-1.21a1.483,1.483,0,0,1,.762-.219,1.278,1.278,0,0,1,.54.121c1.83.909,3.689,1.759,5.5,2.708a3.193,3.193,0,0,0,4.37-1.379c.92-1.823,1.977-3.577,2.952-5.372a.9.9,0,0,1,.716-.514c1.2-.2,2.39-.414,3.578-.654a.514.514,0,0,1,.664.3q4.4,7.788,8.83,15.562c.384.676.765,1.354,1.206,2.134ZM32.018,41.38A14.97,14.97,0,1,0,17.139,26.388,15.011,15.011,0,0,0,32.018,41.38Zm.113-26.964A11.993,11.993,0,1,1,20.116,26.344,12.017,12.017,0,0,1,32.131,14.416ZM25.35,28.282A1.624,1.624,0,1,1,27.651,26c.7.688,1.376,1.391,2.106,2.13l4.391-4.4c.787-.787,1.571-1.576,2.361-2.361a1.63,1.63,0,1,1,2.3,2.292q-3.9,3.918-7.82,7.826a1.606,1.606,0,0,1-2.43,0Q26.943,29.9,25.35,28.282Z"/></g></svg>