<?xml version="1.0" encoding="UTF-8"?><svg xmlns="http://www.w3.org/2000/svg" xmlns:xlink="http://www.w3.org/1999/xlink" height="64.1" preserveAspectRatio="xMidYMid meet" version="1.0" viewBox="-0.0 -0.0 65.2 64.1" width="65.2" zoomAndPan="magnify"><g data-name="7" id="change1_1"><path d="M63.612,3.529a3.713,3.713,0,0,0-3.3-.574,3.611,3.611,0,0,0-2.708-2.4,3.7,3.7,0,0,0-2.983.789A3.342,3.342,0,0,0,51.985,0a3.388,3.388,0,0,0-2.438,1.1A3.228,3.228,0,0,0,47.986.414a3.524,3.524,0,0,0-3.383,1.7,3.069,3.069,0,0,0-.332.814,13.307,13.307,0,0,0-.259,1.78C41.089,4.7,34.526,4.684,33.9,4.7a.542.542,0,0,1-.508-.224A25.983,25.983,0,0,0,29.62,1.556,10.119,10.119,0,0,0,27.16.466a10.324,10.324,0,0,0-3.87-.3c-.858.059-1.82.032-3.152,0C19.231.133,18.146.1,16.789.091L13.66.058Q10.6.025,7.546,0A3.674,3.674,0,0,0,4.532,1.43a3.706,3.706,0,0,0-.569,3.283l0,.007a3.632,3.632,0,0,0-2.4,2.715,3.717,3.717,0,0,0,.791,2.982A3.325,3.325,0,0,0,1.01,13.043,3.359,3.359,0,0,0,2.1,15.491a3.264,3.264,0,0,0-.68,1.55,3.475,3.475,0,0,0,1.694,3.39,2.815,2.815,0,0,0,.816.329c.211.052.467.1.766.144l0,2.784c0,3.1-.011,6.956,0,7.418a.58.58,0,0,1-.221.517A25.5,25.5,0,0,0,1.556,35.4a10.251,10.251,0,0,0-1.1,2.465,10.487,10.487,0,0,0-.312,3.724l.009.147c.065.857.037,1.82,0,3.151-.025.906-.057,1.99-.069,3.347l0,.42Q.033,53.064,0,57.475a3.707,3.707,0,0,0,1.43,3.014,3.706,3.706,0,0,0,3.287.568,3.616,3.616,0,0,0,2.717,2.4,3.715,3.715,0,0,0,2.98-.79,3.307,3.307,0,0,0,2.631,1.347,3.388,3.388,0,0,0,2.439-1.1,3.238,3.238,0,0,0,1.56.685,3.524,3.524,0,0,0,3.384-1.7,3.091,3.091,0,0,0,.332-.814,13.7,13.7,0,0,0,.259-1.79c2.8.02,9.468.037,10.108.018a.547.547,0,0,1,.508.224,25.935,25.935,0,0,0,3.775,2.921,10.2,10.2,0,0,0,2.461,1.09,10.353,10.353,0,0,0,3.88.3c.851-.058,1.81-.031,3.137,0,.907.025,1.994.055,3.353.067l2.965.031q3.139.035,6.288.059h.018a3.621,3.621,0,0,0,3.554-4.717,3.633,3.633,0,0,0,2.4-2.715,3.68,3.68,0,0,0-.79-2.984,3.26,3.26,0,0,0,.254-5.075,3.264,3.264,0,0,0,.679-1.55,3.472,3.472,0,0,0-1.694-3.389,2.849,2.849,0,0,0-.819-.33c-.218-.052-.476-.1-.77-.143.018-2.692.027-9.564.007-10.2a.58.58,0,0,1,.221-.517,26.108,26.108,0,0,0,2.934-3.778,9.695,9.695,0,0,0,1.4-6.189l-.009-.141c-.058-.857-.032-1.816,0-3.144.025-.908.055-2,.067-3.358l0-.42q.044-4.41.076-8.82A3.686,3.686,0,0,0,63.612,3.529ZM60.784,46.991a1,1,0,0,1-.889.47c-1.376,0-2.753-.017-4.129-.034l-6.244-.056a1.382,1.382,0,0,0-1.439.978,1.293,1.293,0,0,0,.555,1.5,1.848,1.848,0,0,0,.943.246c2.158.025,3.687,0,5.166-.023,1.422-.023,2.894-.046,4.948-.027.167,0,.316,0,.47.008a.943.943,0,0,1,.9.962.9.9,0,0,1-.892.96c-.768.017-1.536.006-2.3,0l-.594-.007c-1.747-.015-2.858.015-3.932.043-1.046.028-2.106.058-3.772.047a1.634,1.634,0,0,0-1.138.395,1.86,1.86,0,0,0-.386,1.228,1.156,1.156,0,0,0,1.094,1.063,5.689,5.689,0,0,0,.686.038l.251.006c3.2.03,6.39.06,9.593.08a1.01,1.01,0,0,1,1.038.508.9.9,0,0,1-.01.9,1.07,1.07,0,0,1-.936.481q-2.326-.015-4.654-.047l-.234,0c-1.831-.02-3.662-.04-5.494-.04a1.461,1.461,0,0,0-1.057.41,1.319,1.319,0,0,0-.368.955,1.357,1.357,0,0,0,1.395,1.355h.3q3.7.045,7.414.07H57.3c.548.011,1.2.182,1.2.93s-.677.886-1.231.9l-5.355-.053q-5.227-.054-10.457-.1A9.979,9.979,0,0,1,33.3,57.265a1.723,1.723,0,0,0-1.4-.675h-.045c-.82.009-7.667-.008-10.677-.028.053-1.544.064-3.056.066-3.927a4.246,4.246,0,0,0,.918.135,4.067,4.067,0,0,0,3.094-1.331,3.239,3.239,0,0,0,.886-3.067c-.074-.641-.142-1.274-.2-1.912,2.478,0,4.924,0,5.289.019a1.806,1.806,0,0,0,1.586-.719,11.641,11.641,0,0,1,5.592-4.1,8.873,8.873,0,0,1,1.849-.4c1.628-.14,3.256-.279,4.885-.4l3.623-.269a1.551,1.551,0,0,1,.861.189.84.84,0,0,1,.39.975.9.9,0,0,1-.747.775c-.33.078-.66.13-.989.182l-.4.065a1.529,1.529,0,0,0-1.075.624,1.265,1.265,0,0,0-.234.841,1.387,1.387,0,0,0,1.55,1.279h.122c3.79.04,7.57.079,11.372.109h.13c.538,0,.831.132,1.013.458v0A.877.877,0,0,1,60.784,46.991ZM15.661,48.076a1.251,1.251,0,0,0-1.494.552,1.82,1.82,0,0,0-.247.933c-.025,2.161,0,3.689.023,5.166.023,1.424.047,2.9.027,4.959,0,.162,0,.315-.009.469a.964.964,0,0,1-1.921,0c-.022-.724-.011-1.449,0-2.174l.01-.721c.016-1.784-.014-2.86-.047-4-.028-1.025-.058-2.074-.053-3.7a1.635,1.635,0,0,0-.382-1.127,1.764,1.764,0,0,0-1.137-.4c-.033,0-.064,0-.094,0a1.169,1.169,0,0,0-1.073,1.093,5.531,5.531,0,0,0-.034.8v.142l-.005.513q-.042,4.543-.075,9.074c-.009.556-.156.855-.507,1.034a.915.915,0,0,1-.912-.008,1.062,1.062,0,0,1-.471-.929c0-1.226.017-2.452.034-3.678l.056-6.7A1.36,1.36,0,1,0,4.632,49.3a3.859,3.859,0,0,0-.012.389c-.02,2.448-.04,4.906-.07,7.358v.236a1.375,1.375,0,0,1-.317.986.807.807,0,0,1-.592.213.857.857,0,0,1-.614-.217,1.4,1.4,0,0,1-.3-1.005L2.768,53.4q.06-5.977.1-11.955A10.032,10.032,0,0,1,6.728,33.29a1.708,1.708,0,0,0,.692-1.438c-.006-.535,0-3.515,0-6.382l.006-4.327c1.853.1,3.878.114,4.951.111a3.925,3.925,0,0,0-.131.925,4.081,4.081,0,0,0,1.273,3.035l.069.068a3.234,3.234,0,0,0,3.055.866l.163-.018c.244-.028.486-.055.73-.081,0,2.427,0,4.818-.019,5.183a1.786,1.786,0,0,0,.728,1.575,11.876,11.876,0,0,1,4.1,5.6,8.013,8.013,0,0,1,.383,1.85c.121,1.288.23,2.586.33,3.873l.15,1.981c.07.889.13,1.767.19,2.663a1.528,1.528,0,0,1-.191.852.857.857,0,0,1-.964.388.924.924,0,0,1-.784-.74c-.056-.264-.1-.528-.143-.792-.033-.2-.067-.407-.1-.6-.127-.789-.6-1.277-1.2-1.3a1.273,1.273,0,0,0-.262-.017,1.4,1.4,0,0,0-1.279,1.55q-.039,3.462-.062,6.924L18.37,59.73c-.01.558-.14.846-.469,1.029a.865.865,0,0,1-.884.01,1,1,0,0,1-.467-.883c0-1.1.011-2.208.022-3.312L16.59,54.4c.02-1.63.04-3.261.05-4.894A1.388,1.388,0,0,0,15.661,48.076ZM4.253,17.015a1,1,0,0,1,.882-.464c1.366,0,2.731.017,4.1.033l6.277.057a1.358,1.358,0,0,0,1.439-.978,1.292,1.292,0,0,0-.554-1.5,1.816,1.816,0,0,0-.943-.246c-2.157-.027-3.685,0-5.162.023-1.423.022-2.9.045-4.953.027-.158,0-.315,0-.469-.009A.942.942,0,0,1,3.97,13a.9.9,0,0,1,.893-.96c.769-.016,1.536-.007,2.3,0l.595.007c1.751.017,2.86-.014,3.934-.043,1.046-.029,2.105-.059,3.769-.047a1.633,1.633,0,0,0,1.138-.395,1.868,1.868,0,0,0,.387-1.228A1.16,1.16,0,0,0,15.9,9.274a5.89,5.89,0,0,0-.686-.038l-.763-.01C11.417,9.2,8.4,9.17,5.365,9.151A.988.988,0,0,1,4.336,8.64a.9.9,0,0,1,0-.9,1.065,1.065,0,0,1,.935-.481c1.629.01,3.258.03,4.888.05,1.831.02,3.663.04,5.494.04A1.356,1.356,0,0,0,17.09,5.979a1.376,1.376,0,0,0-1.4-1.348H15.4c-2.48-.03-4.95-.05-7.424-.07H7.733c-.549-.011-1.2-.182-1.2-.931s.676-.912,1.232-.9l5.354.053q5.229.053,10.457.1a9.979,9.979,0,0,1,8.155,3.866,1.684,1.684,0,0,0,1.441.674c.812-.01,7.544.008,10.677.018-.053,1.546-.063,3.063-.065,3.937a4.2,4.2,0,0,0-.919-.135,4.048,4.048,0,0,0-3.093,1.331,3.236,3.236,0,0,0-.887,3.067c.075.64.142,1.274.2,1.912-2.478,0-4.924,0-5.29-.02a1.811,1.811,0,0,0-1.586.719,11.643,11.643,0,0,1-5.591,4.1,8.84,8.84,0,0,1-1.849.393c-1.629.14-3.257.28-4.886.4l-3.624.27a1.589,1.589,0,0,1-.86-.19.842.842,0,0,1-.39-.975.91.91,0,0,1,.748-.776c.326-.076.652-.128.979-.179l.41-.066a1.53,1.53,0,0,0,1.075-.625,1.261,1.261,0,0,0,.234-.841,1.386,1.386,0,0,0-1.55-1.279h-.117c-3.791-.04-7.572-.08-11.377-.109h-.13c-.538,0-.831-.133-1.012-.458A.886.886,0,0,1,4.253,17.015ZM20.28,30.733c-.009-.27-.01-2.582-.01-4.918l3.712-.266c.144-.014.291-.022.449-.03.3-.015.63-.033,1.031-.091a12.628,12.628,0,0,0,2.3-.518l.08-.073a15.02,15.02,0,0,0,6.133-4.425.531.531,0,0,1,.321-.132c.206-.014,1.656-.013,3.335-.011h1.653l.224,3.07c.016.318.033.668.092,1.116a13.367,13.367,0,0,0,.524,2.294l.065.086a14.793,14.793,0,0,0,4.427,6.125.566.566,0,0,1,.13.318c.01.27.01,2.582.01,4.918l-3.712.266c-.143.014-.289.021-.447.029-.3.016-.631.033-1.033.092a12.683,12.683,0,0,0-2.3.515l-.087.075A15.021,15.021,0,0,0,31.051,43.6a.543.543,0,0,1-.321.131c-.207.014-1.725.012-3.335.01H25.743l-.225-3.069c-.016-.318-.033-.668-.091-1.117a13.373,13.373,0,0,0-.525-2.294l-.065-.085a14.878,14.878,0,0,0-4.426-6.133A.529.529,0,0,1,20.28,30.733ZM58.3,30.722a1.707,1.707,0,0,0-.693,1.438c.009.808,0,7.674-.017,10.71-1.734-.092-3.62-.113-4.737-.113h-.2a3.986,3.986,0,0,0,.127-.924A4.075,4.075,0,0,0,51.506,38.8l-.067-.067a3.3,3.3,0,0,0-3.128-.859c-.276.031-.547.062-.821.09,0-2.426,0-4.818.02-5.182a1.783,1.783,0,0,0-.729-1.575,11.874,11.874,0,0,1-4.1-5.6,8.086,8.086,0,0,1-.383-1.847c-.11-1.289-.22-2.588-.32-3.882-.06-.656-.11-1.312-.15-1.976l-.021-.266c-.063-.8-.125-1.59-.18-2.4a1.54,1.54,0,0,1,.193-.852.86.86,0,0,1,.963-.388.921.921,0,0,1,.784.74c.057.264.1.528.143.791.033.2.067.408.1.6a1.353,1.353,0,0,0,1.208,1.3A1.342,1.342,0,0,0,46.56,15.89q.06-5.237.09-10.464c.01-.383.01-.767.01-1.144.009-.558.141-.847.469-1.029a.869.869,0,0,1,.885-.011,1,1,0,0,1,.466.884c0,1.1-.011,2.208-.021,3.312L48.44,9.614c-.02,1.63-.04,3.26-.05,4.892a1.388,1.388,0,0,0,.979,1.43,1.249,1.249,0,0,0,1.488-.542,1.729,1.729,0,0,0,.253-.944c.026-2.161,0-3.688-.023-5.166-.023-1.423-.046-2.9-.027-4.935,0-.093,0-.183,0-.273,0-.075,0-.15,0-.22a.921.921,0,0,1,.96-.885.893.893,0,0,1,.961.886c.023.725.012,1.45,0,2.175l-.01.72c-.016,1.785.015,2.861.047,4,.029,1.025.058,2.075.053,3.7a1.633,1.633,0,0,0,.388,1.132,1.839,1.839,0,0,0,1.225.392,1.17,1.17,0,0,0,1.074-1.093,5.819,5.819,0,0,0,.034-.795v-.143l.09-9.593c0-.55.144-.847.5-1.027a.915.915,0,0,1,.912.008,1.061,1.061,0,0,1,.471.929c0,.983-.011,1.966-.021,2.949L57.73,9.152c-.02,1.83-.04,3.661-.05,5.494a1.36,1.36,0,1,0,2.718.068,3.793,3.793,0,0,0,.013-.387c.02-2.449.039-4.908.069-7.361V6.73a1.38,1.38,0,0,1,.317-.987.815.815,0,0,1,.593-.212A.854.854,0,0,1,62,5.748a1.391,1.391,0,0,1,.3,1l-.038,3.856q-.059,5.977-.1,11.956A10.031,10.031,0,0,1,58.3,30.722ZM45.255,17.066Zm-25.48,29.88Z"/></g></svg>