<?xml version="1.0" encoding="UTF-8"?><svg xmlns="http://www.w3.org/2000/svg" xmlns:xlink="http://www.w3.org/1999/xlink" height="77.6" preserveAspectRatio="xMidYMid meet" version="1.0" viewBox="-0.1 -0.1 76.9 77.6" width="76.9" zoomAndPan="magnify"><g data-name="49" id="change1_1"><path d="M72.536,12.218q-12.05-.027-24.1-.031l-4.154,0h0A1.384,1.384,0,0,0,42.8,13.669l.049,8.781c-3.852-.969-6.661-.15-8.576,2.5a7.149,7.149,0,0,0-.2,8.115c1.819,2.819,4.441,3.675,8.733,2.829v7.552H39.79q-3.246,0-6.5,0c-.59-.005-1.351,0-1.711.8-.338.752.093,1.281.474,1.749A4.311,4.311,0,0,1,32.97,49.8,4.458,4.458,0,0,1,29.2,53.314a4.56,4.56,0,0,1-4.519-2.21,4.433,4.433,0,0,1,.446-5.128,1.431,1.431,0,0,0-1.212-2.535c-1.759,0-3.518,0-5.278,0s-3.519,0-5.278,0c-1.262,0-1.731.464-1.732,1.7v2.235q0,12.852,0,25.7a4.066,4.066,0,0,0,4.227,4.265q14.166.006,28.333,0t28.334,0a4.014,4.014,0,0,0,4.246-4.232q.012-28.333,0-56.668A4.015,4.015,0,0,0,72.536,12.218ZM43.577,63.37a1.59,1.59,0,0,0-.746,1.642c.019,2.571.016,5.143.013,7.714l0,1.728a1.016,1.016,0,0,1-.032.2H16.347c-1.633,0-2.009-.375-2.009-2V46.183h7.515c-.887,3.979-.053,6.7,2.612,8.552a7.167,7.167,0,0,0,8.112.073c2.733-1.823,3.58-4.494,2.726-8.635h7.489v0a2.883,2.883,0,0,1,.035.385L42.814,49.1c-.015,2.264-.03,4.605,0,6.908a1.883,1.883,0,0,0,.747,1.359c.739.5,1.48-.136,1.723-.345a4.485,4.485,0,1,1,4.758,7.474,4.228,4.228,0,0,1-4.7-.718A1.466,1.466,0,0,0,43.577,63.37ZM72.136,74.658H45.587V67.114c3.927,1.159,6.931.067,8.938-3.246a6.869,6.869,0,0,0-.648-7.941c-2.144-2.578-4.939-3.336-8.311-2.258V46.137a1.662,1.662,0,0,1,.245-.024h1.574c2.621,0,5.243,0,7.865.014h.04a1.444,1.444,0,0,0,1.523-.779,1.532,1.532,0,0,0-.4-1.7,4.486,4.486,0,1,1,7.86-3.309,4.4,4.4,0,0,1-1.113,3.314,1.405,1.405,0,0,0-.407,1.693,1.545,1.545,0,0,0,1.622.778c2.439-.021,4.876-.018,7.354-.015l2.338,0,0,.059c.014.192.027.374.027.556q0,12.972,0,25.943C74.1,74.23,73.679,74.657,72.136,74.658ZM74.1,43.37H66.538c1.153-3.895.085-6.888-3.177-8.9a6.885,6.885,0,0,0-8.015.6c-2.59,2.15-3.35,4.944-2.261,8.311H45.517V40.752q0-3.456,0-6.912A1.429,1.429,0,0,0,43,32.608a4.439,4.439,0,0,1-6.167-.411,4.516,4.516,0,0,1,.11-6.2,4.428,4.428,0,0,1,6.172-.183,1.411,1.411,0,0,0,1.726.3,1.584,1.584,0,0,0,.72-1.573c-.027-2.415-.024-4.78-.02-7.283l0-2.317.058,0c.192-.015.374-.029.556-.029q13.014,0,26.027,0c1.508,0,1.921.42,1.922,1.952q0,9.731,0,19.461ZM17.486,31.316l1.573.628c1.44.575,2.848,1.137,4.258,1.692,1.02.4,1.673.147,2.055-.8,1.056-2.61,2.147-5.309,3.17-8.036a1.747,1.747,0,0,0-.266-1.536c-.29-.33-.9-.323-1.407-.317a5.15,5.15,0,0,0-.789.089,3.185,3.185,0,0,1-1.362-6.207,3.183,3.183,0,0,1,3.767,1.553c.2.35.681,1.169,1.5.914A2.086,2.086,0,0,0,31.154,18.2c.88-2.091,1.728-4.235,2.547-6.309l.529-1.338c.459-1.159.2-1.763-.972-2.232s-2.315-.921-3.473-1.38L23.472,4.438Q18.279,2.374,13.083.319a3.459,3.459,0,0,0-4.77,1.937Q4.221,12.477.177,22.718a1.387,1.387,0,0,0,.9,2.071c1.153.469,2.308.929,3.464,1.39l1.978.791c.135.054.267.116.405.18a5.8,5.8,0,0,0-.4,6.9,5.494,5.494,0,0,0,4.8,2.8,6.552,6.552,0,0,0,.916-.066C15.215,36.355,16.977,34.518,17.486,31.316Zm-9.02.634a3.219,3.219,0,0,1,1.242-3.7c.089-.06.183-.117.277-.173.483-.291,1.085-.652.971-1.508s-.795-1.1-1.343-1.3c-.084-.031-.168-.061-.25-.094L3.1,22.694l.038-.1c.078-.216.152-.422.233-.625L3.793,20.9q3.446-8.669,6.9-17.335c.354-.889.664-1.032,1.515-.695q8.113,3.214,16.222,6.439l2.7,1.073c.07.028.138.062.227.106l-1.914,4.829c-2.59-1.808-5.094-1.826-7.446-.054a5.514,5.514,0,0,0-2.159,5.807c.577,2.742,2.393,4.358,5.4,4.808l-1.922,4.847-6.275-2.487a1.369,1.369,0,0,1-.144-.071,1.093,1.093,0,0,0-.466-.147c-.1,0-.21,0-.319,0a1.806,1.806,0,0,0-1.2.232c-.335.277-.342.888-.348,1.379v.089a5.813,5.813,0,0,0,.065.819,3.675,3.675,0,0,1,.038,1.012,3.125,3.125,0,0,1-2.886,2.589A3.224,3.224,0,0,1,8.466,31.95Z"/></g></svg>