<?xml version="1.0" encoding="UTF-8"?><svg xmlns="http://www.w3.org/2000/svg" xmlns:xlink="http://www.w3.org/1999/xlink" height="78.6" preserveAspectRatio="xMidYMid meet" version="1.0" viewBox="-0.2 -0.1 60.0 78.6" width="60.0" zoomAndPan="magnify"><g data-name="24" id="change1_1"><path d="M7.62,22.55a1.692,1.692,0,0,1-1,.84,1.54,1.54,0,0,1-.43.06,1.411,1.411,0,0,1-.72-.19c-1.71-.93-3.259-1.83-4.75-2.75a1.586,1.586,0,0,1-.59-.79.542.542,0,0,0-.06-.11L0,19.48v-.14a1.876,1.876,0,0,1,.89-1.62,1.5,1.5,0,0,1,1.49-.01c1.66.9,3.3,1.87,4.7,2.7A1.6,1.6,0,0,1,7.62,22.55ZM30.79,8.49h.04a1.59,1.59,0,0,0,1.131-.43,1.851,1.851,0,0,0,.519-1.33c.01-.58.01-1.16.01-1.74l-.01-1.13V3.48c0-.58.01-1.16,0-1.74a1.653,1.653,0,1,0-3.3.01c-.009,1.66-.02,3.31-.009,4.97A1.617,1.617,0,0,0,30.79,8.49ZM6.16,43.98,5.98,44a1.117,1.117,0,0,0-.46.13l-.82.47C3.35,45.37,2,46.14.671,46.94a1.561,1.561,0,0,0-.451,2.1,1.618,1.618,0,0,0,1.41.87,1.41,1.41,0,0,0,.69-.17c1.53-.84,3.1-1.74,4.81-2.77a1.5,1.5,0,0,0,.59-1.84A1.6,1.6,0,0,0,6.16,43.98Zm53.6-24.77a1.842,1.842,0,0,0-.98-1.48,1.8,1.8,0,0,0-1.71.07c-1.46.82-2.92,1.67-4.37,2.53a1.657,1.657,0,0,0-.65,2.26,1.62,1.62,0,0,0,1.42.85,1.723,1.723,0,0,0,.86-.24c1.45-.81,2.99-1.69,4.48-2.6a2.258,2.258,0,0,0,.67-.75c.06-.1.12-.19.18-.28l.13-.16ZM49.281,34.088a18.771,18.771,0,0,1-5.63,11.571,15.078,15.078,0,0,0-4.1,8.1,61.468,61.468,0,0,0-.85,6.91c-.15,1.679-.97,2.58-2.68,2.58l-5.493-.036a2.624,2.624,0,0,1-2.08-.649c-.221-.237-.509-.591-.606-1.862-.065-.858-.082-1.723-.123-2.583q-.107-2.264-.215-4.527a.809.809,0,0,0-.254-.211c-.96-.45-1.931-.859-2.96-1.289-.35-.151-.7-.29-1.051-.441L20.06,54.3a1.423,1.423,0,0,1-2.111-.03c-1.3-1.29-2.57-2.54-3.8-3.811a1.474,1.474,0,0,1-.071-2.209c.25-.291.5-.591.75-.891.45-.549.92-1.109,1.43-1.619a1.238,1.238,0,0,0,.261-1.811A9.911,9.911,0,0,1,15.5,41.492a1.138,1.138,0,0,0-1.2-.91l-.97-.09c-.8-.071-1.639-.15-2.45-.2A1.464,1.464,0,0,1,9.3,38.651v-.589c0-1.5.01-3.04,0-4.57a1.489,1.489,0,0,1,1.56-1.67c.4-.03.791-.07,1.19-.111.81-.07,1.641-.149,2.471-.169.549-.02.8-.21.989-.8.161-.46.35-.92.53-1.361a15.132,15.132,0,0,0,.58-1.52,1.521,1.521,0,0,0-.12-1.15c-.539-.739-1.14-1.449-1.729-2.129-.221-.26-.451-.52-.661-.78a1.446,1.446,0,0,1,.09-2.191l.13-.129c1.151-1.15,2.35-2.341,3.51-3.521a1.481,1.481,0,0,1,2.28-.1l.461.4c.73.629,1.48,1.28,2.27,1.859a1.3,1.3,0,0,0,1.029.111,29.448,29.448,0,0,0,3.221-1.44,1.414,1.414,0,0,0,.67-.841c.109-.639.17-1.31.219-1.959.031-.371.051-.74.091-1.1.119-1.089.32-1.559.929-1.76a1.572,1.572,0,0,1,1.04-.43h.745A19.244,19.244,0,0,1,49.281,34.088ZM30.794,15.843v.006l-.015,0c-.029.329-.06.66-.089.99-.081.829-.17,1.68-.21,2.519a1.873,1.873,0,0,1-1.471,1.81,40.9,40.9,0,0,0-4.65,2.081,1.783,1.783,0,0,1-2.31-.15c-.68-.6-1.379-1.181-2.069-1.741-.261-.22-.531-.44-.79-.65l-2.2,2.21c.221.26.44.53.67.8.58.719,1.19,1.469,1.821,2.189a1.832,1.832,0,0,1,.21,2.22c-.63,1.381-1.23,2.9-1.851,4.641a1.7,1.7,0,0,1-1.62,1.359c-.949.07-1.91.161-2.92.27-.4.04-.81.081-1.23.121,0,.22,0,.439-.01.659a17.568,17.568,0,0,0,.05,2.061c.01.119.4.4.661.429,1.069.141,2.139.22,3.409.3a1.715,1.715,0,0,1,1.65,1.35c.62,1.74,1.24,3.289,1.89,4.74a1.813,1.813,0,0,1-.2,2.22c-.631.679-1.231,1.379-1.861,2.119-.239.28-.489.571-.739.871l2.37,2.07c.17-.151.36-.31.549-.471.54-.46,1.15-.97,1.741-1.51,1.25-1.15,1.509-1.109,3-.319A24.929,24.929,0,0,0,28.83,50.9a2.408,2.408,0,0,1,1.309.836,2.209,2.209,0,0,1,.361,1.3c0,1.024.1,3.013.242,5.671,0,.029-.009.059-.008.087s.014.054.016.081q.032.584.064,1.207h4.747c.03-.349.03-.669.08-1,.28-2.03.45-4.079.88-6.079a18.985,18.985,0,0,1,5.44-10.09,13.708,13.708,0,0,0,3.13-4.821A16.145,16.145,0,0,0,30.794,15.843ZM58.81,46.8q-2.175-1.26-4.36-2.51a1.847,1.847,0,0,0-1.44-.23,1.56,1.56,0,0,0-.96.77,1.7,1.7,0,0,0,.76,2.33q2.085,1.215,4.2,2.43a3.441,3.441,0,0,0,.58.24l.23.08h.11a1.644,1.644,0,0,0,1.65-1.23A1.6,1.6,0,0,0,58.81,46.8ZM40.446,68.469v5.96a4.116,4.116,0,0,1-4.109,4.11H30.431a4.11,4.11,0,0,1-4.11-4.11v-5.96a4.111,4.111,0,0,1,4.11-4.111h5.906A4.117,4.117,0,0,1,40.446,68.469Zm-2.8,0a1.316,1.316,0,0,0-1.309-1.32H30.431a1.319,1.319,0,0,0-1.32,1.32v5.96a1.319,1.319,0,0,0,1.32,1.32h5.906a1.316,1.316,0,0,0,1.309-1.32ZM33.268,24.7q.015,11.33.032,22.659a8.441,8.441,0,0,1-2.506.128,11.891,11.891,0,0,1-10.124-11.1A11.843,11.843,0,0,1,30.691,24.608l.1,0v.035a1.126,1.126,0,0,1,.193-.017l.22-.023A18.826,18.826,0,0,1,33.268,24.7ZM30.715,44.585a1.67,1.67,0,0,1-.032-.332V27.582a1.507,1.507,0,0,1-.349-.122,8.787,8.787,0,0,0,.185,17.209,1.1,1.1,0,0,1,.11-.052A.6.6,0,0,1,30.715,44.585Z"/></g></svg>